<mxfile host="app.diagrams.net" modified="2023-08-01T17:10:15.484Z" agent="Mozilla/5.0 (Windows NT 10.0; Win64; x64) AppleWebKit/537.36 (KHTML, like Gecko) Chrome/114.0.0.0 YaBrowser/23.7.0.2526 Yowser/2.5 Safari/537.36" etag="iccwB26EptMnj_WrpnyM" version="21.3.8" type="device">
  <diagram name="Страница 1" id="UWamRvzGhG3p9wYG1EOX">
    <mxGraphModel dx="1386" dy="783" grid="1" gridSize="10" guides="1" tooltips="1" connect="1" arrows="1" fold="1" page="1" pageScale="1" pageWidth="1169" pageHeight="1654" math="0" shadow="0">
      <root>
        <mxCell id="0" />
        <mxCell id="1" parent="0" />
        <mxCell id="8IGTsKS9_2m41PuYOUdk-7" value="" style="edgeStyle=orthogonalEdgeStyle;rounded=0;orthogonalLoop=1;jettySize=auto;html=1;" edge="1" parent="1" source="8IGTsKS9_2m41PuYOUdk-1" target="8IGTsKS9_2m41PuYOUdk-6">
          <mxGeometry relative="1" as="geometry" />
        </mxCell>
        <mxCell id="8IGTsKS9_2m41PuYOUdk-1" value="start" style="rounded=1;whiteSpace=wrap;html=1;" vertex="1" parent="1">
          <mxGeometry x="240" y="40" width="120" height="60" as="geometry" />
        </mxCell>
        <mxCell id="8IGTsKS9_2m41PuYOUdk-10" value="" style="edgeStyle=orthogonalEdgeStyle;rounded=0;orthogonalLoop=1;jettySize=auto;html=1;" edge="1" parent="1" source="8IGTsKS9_2m41PuYOUdk-6" target="8IGTsKS9_2m41PuYOUdk-9">
          <mxGeometry relative="1" as="geometry" />
        </mxCell>
        <mxCell id="8IGTsKS9_2m41PuYOUdk-6" value="&lt;font style=&quot;font-size: 11px;&quot;&gt;Введите данные&lt;br&gt;&lt;/font&gt;&lt;div style=&quot;color: rgb(204, 204, 204); background-color: rgb(31, 31, 31); font-family: Consolas, &amp;quot;Courier New&amp;quot;, monospace; line-height: 19px; font-size: 11px;&quot;&gt;&lt;font style=&quot;font-size: 11px;&quot;&gt;string[] all_mas&lt;br&gt;&lt;/font&gt;&lt;div style=&quot;line-height: 19px;&quot;&gt;&lt;font style=&quot;font-size: 11px;&quot;&gt;&lt;span style=&quot;color: rgb(86, 156, 214);&quot;&gt;string&lt;/span&gt;[] new_mas&lt;br&gt;&lt;/font&gt;&lt;div style=&quot;line-height: 19px;&quot;&gt;&lt;font style=&quot;font-size: 11px;&quot;&gt;&lt;span style=&quot;color: rgb(86, 156, 214);&quot;&gt;int&lt;/span&gt; &lt;span style=&quot;color: rgb(156, 220, 254);&quot;&gt;zamen&lt;/span&gt; &lt;span style=&quot;color: rgb(212, 212, 212);&quot;&gt;=&lt;/span&gt; &lt;span style=&quot;color: rgb(181, 206, 168);&quot;&gt;0&lt;/span&gt; ;&lt;/font&gt;&lt;/div&gt;&lt;/div&gt;&lt;/div&gt;" style="shape=parallelogram;perimeter=parallelogramPerimeter;whiteSpace=wrap;html=1;fixedSize=1;rounded=1;" vertex="1" parent="1">
          <mxGeometry x="225" y="130" width="150" height="120" as="geometry" />
        </mxCell>
        <mxCell id="8IGTsKS9_2m41PuYOUdk-15" value="yes" style="edgeStyle=orthogonalEdgeStyle;rounded=0;orthogonalLoop=1;jettySize=auto;html=1;" edge="1" parent="1" source="8IGTsKS9_2m41PuYOUdk-9" target="8IGTsKS9_2m41PuYOUdk-14">
          <mxGeometry relative="1" as="geometry" />
        </mxCell>
        <mxCell id="8IGTsKS9_2m41PuYOUdk-22" value="no" style="edgeStyle=orthogonalEdgeStyle;rounded=0;orthogonalLoop=1;jettySize=auto;html=1;" edge="1" parent="1" source="8IGTsKS9_2m41PuYOUdk-9" target="8IGTsKS9_2m41PuYOUdk-21">
          <mxGeometry relative="1" as="geometry" />
        </mxCell>
        <mxCell id="8IGTsKS9_2m41PuYOUdk-9" value="&lt;div style=&quot;color: rgb(204, 204, 204); background-color: rgb(31, 31, 31); font-family: Consolas, &amp;quot;Courier New&amp;quot;, monospace; line-height: 19px;&quot;&gt;for (&lt;span style=&quot;color: #569cd6;&quot;&gt;int&lt;/span&gt; &lt;span style=&quot;color: #9cdcfe;&quot;&gt;z&lt;/span&gt; &lt;span style=&quot;color: #d4d4d4;&quot;&gt;=&lt;/span&gt; &lt;span style=&quot;color: #b5cea8;&quot;&gt;0&lt;/span&gt;; &lt;span style=&quot;color: #9cdcfe;&quot;&gt;z&lt;/span&gt; &lt;span style=&quot;color: #d4d4d4;&quot;&gt;&amp;lt;&lt;/span&gt; &lt;span style=&quot;color: #9cdcfe;&quot;&gt;all_mas&lt;/span&gt;&lt;span style=&quot;color: #d4d4d4;&quot;&gt;.&lt;/span&gt;&lt;span style=&quot;color: #9cdcfe;&quot;&gt;Length&lt;/span&gt;; &lt;span style=&quot;color: #9cdcfe;&quot;&gt;z&lt;/span&gt;&lt;span style=&quot;color: #d4d4d4;&quot;&gt;++&lt;/span&gt;)&lt;/div&gt;" style="shape=hexagon;perimeter=hexagonPerimeter2;whiteSpace=wrap;html=1;fixedSize=1;rounded=1;" vertex="1" parent="1">
          <mxGeometry x="140" y="270" width="300" height="130" as="geometry" />
        </mxCell>
        <mxCell id="8IGTsKS9_2m41PuYOUdk-16" value="no" style="edgeStyle=orthogonalEdgeStyle;rounded=0;orthogonalLoop=1;jettySize=auto;html=1;entryX=0.093;entryY=1;entryDx=0;entryDy=0;entryPerimeter=0;" edge="1" parent="1" source="8IGTsKS9_2m41PuYOUdk-14" target="8IGTsKS9_2m41PuYOUdk-9">
          <mxGeometry relative="1" as="geometry">
            <mxPoint x="170" y="410" as="targetPoint" />
            <Array as="points">
              <mxPoint x="168" y="520" />
            </Array>
          </mxGeometry>
        </mxCell>
        <mxCell id="8IGTsKS9_2m41PuYOUdk-18" value="yes" style="edgeStyle=orthogonalEdgeStyle;rounded=0;orthogonalLoop=1;jettySize=auto;html=1;entryX=1.025;entryY=0.804;entryDx=0;entryDy=0;entryPerimeter=0;" edge="1" parent="1" source="8IGTsKS9_2m41PuYOUdk-14" target="8IGTsKS9_2m41PuYOUdk-17">
          <mxGeometry relative="1" as="geometry" />
        </mxCell>
        <mxCell id="8IGTsKS9_2m41PuYOUdk-14" value="&lt;div style=&quot;color: rgb(204, 204, 204); background-color: rgb(31, 31, 31); font-family: Consolas, &amp;quot;Courier New&amp;quot;, monospace; line-height: 19px;&quot;&gt;if(&lt;span style=&quot;color: #9cdcfe;&quot;&gt;all_mas&lt;/span&gt;[&lt;span style=&quot;color: #9cdcfe;&quot;&gt;z&lt;/span&gt;]&lt;span style=&quot;color: #d4d4d4;&quot;&gt;.&lt;/span&gt;&lt;span style=&quot;color: #9cdcfe;&quot;&gt;Length&lt;/span&gt; &lt;span style=&quot;color: #d4d4d4;&quot;&gt;&amp;lt;=&lt;/span&gt; &lt;span style=&quot;color: #b5cea8;&quot;&gt;3&lt;/span&gt;)&lt;/div&gt;" style="rhombus;whiteSpace=wrap;html=1;rounded=1;" vertex="1" parent="1">
          <mxGeometry x="187.5" y="450" width="205" height="140" as="geometry" />
        </mxCell>
        <mxCell id="8IGTsKS9_2m41PuYOUdk-20" style="edgeStyle=orthogonalEdgeStyle;rounded=0;orthogonalLoop=1;jettySize=auto;html=1;entryX=0;entryY=0.5;entryDx=0;entryDy=0;" edge="1" parent="1" source="8IGTsKS9_2m41PuYOUdk-17" target="8IGTsKS9_2m41PuYOUdk-9">
          <mxGeometry relative="1" as="geometry">
            <Array as="points">
              <mxPoint x="60" y="335" />
            </Array>
          </mxGeometry>
        </mxCell>
        <mxCell id="8IGTsKS9_2m41PuYOUdk-17" value="&lt;div style=&quot;color: rgb(204, 204, 204); background-color: rgb(31, 31, 31); font-family: Consolas, &amp;quot;Courier New&amp;quot;, monospace; font-size: 14px; line-height: 19px;&quot;&gt;&lt;div style=&quot;font-size: 12px;&quot;&gt;new_mas[&lt;span style=&quot;color: #9cdcfe;&quot;&gt;zamen&lt;/span&gt;] &lt;span style=&quot;color: #d4d4d4;&quot;&gt;=&lt;/span&gt; &lt;span style=&quot;color: #9cdcfe;&quot;&gt;all_mas&lt;/span&gt;[&lt;span style=&quot;color: #9cdcfe;&quot;&gt;z&lt;/span&gt;];&lt;/div&gt;&lt;div&gt;&amp;nbsp; &amp;nbsp; &amp;nbsp; &amp;nbsp; &lt;span style=&quot;color: #9cdcfe;&quot;&gt;zamen&lt;/span&gt;&lt;span style=&quot;color: #d4d4d4;&quot;&gt;++&lt;/span&gt;;&lt;/div&gt;&lt;/div&gt;" style="rounded=0;whiteSpace=wrap;html=1;" vertex="1" parent="1">
          <mxGeometry y="440" width="120" height="130" as="geometry" />
        </mxCell>
        <mxCell id="8IGTsKS9_2m41PuYOUdk-24" value="yes" style="edgeStyle=orthogonalEdgeStyle;rounded=0;orthogonalLoop=1;jettySize=auto;html=1;" edge="1" parent="1" source="8IGTsKS9_2m41PuYOUdk-21" target="8IGTsKS9_2m41PuYOUdk-23">
          <mxGeometry relative="1" as="geometry" />
        </mxCell>
        <mxCell id="8IGTsKS9_2m41PuYOUdk-28" value="no" style="edgeStyle=orthogonalEdgeStyle;rounded=0;orthogonalLoop=1;jettySize=auto;html=1;" edge="1" parent="1" source="8IGTsKS9_2m41PuYOUdk-21" target="8IGTsKS9_2m41PuYOUdk-27">
          <mxGeometry relative="1" as="geometry" />
        </mxCell>
        <mxCell id="8IGTsKS9_2m41PuYOUdk-21" value="&lt;div style=&quot;color: rgb(204, 204, 204); background-color: rgb(31, 31, 31); font-family: Consolas, &amp;quot;Courier New&amp;quot;, monospace; line-height: 19px;&quot;&gt;for (&lt;span style=&quot;color: #569cd6;&quot;&gt;int&lt;/span&gt; &lt;span style=&quot;color: #9cdcfe;&quot;&gt;i&lt;/span&gt; &lt;span style=&quot;color: #d4d4d4;&quot;&gt;=&lt;/span&gt; &lt;span style=&quot;color: #b5cea8;&quot;&gt;0&lt;/span&gt;; &lt;span style=&quot;color: #9cdcfe;&quot;&gt;i&lt;/span&gt; &lt;span style=&quot;color: #d4d4d4;&quot;&gt;&amp;lt;&lt;/span&gt; &lt;span style=&quot;color: #9cdcfe;&quot;&gt;all_mas&lt;/span&gt;&lt;span style=&quot;color: #d4d4d4;&quot;&gt;.&lt;/span&gt;&lt;span style=&quot;color: #9cdcfe;&quot;&gt;Length&lt;/span&gt;; &lt;span style=&quot;color: #9cdcfe;&quot;&gt;i&lt;/span&gt;&lt;span style=&quot;color: #d4d4d4;&quot;&gt;++&lt;/span&gt;)&lt;/div&gt;" style="shape=hexagon;perimeter=hexagonPerimeter2;whiteSpace=wrap;html=1;fixedSize=1;rounded=1;" vertex="1" parent="1">
          <mxGeometry x="480" y="270" width="280" height="140" as="geometry" />
        </mxCell>
        <mxCell id="8IGTsKS9_2m41PuYOUdk-26" style="edgeStyle=orthogonalEdgeStyle;rounded=0;orthogonalLoop=1;jettySize=auto;html=1;entryX=0.8;entryY=-0.007;entryDx=0;entryDy=0;entryPerimeter=0;" edge="1" parent="1" source="8IGTsKS9_2m41PuYOUdk-23" target="8IGTsKS9_2m41PuYOUdk-21">
          <mxGeometry relative="1" as="geometry">
            <mxPoint x="700" y="260" as="targetPoint" />
            <Array as="points">
              <mxPoint x="704" y="160" />
            </Array>
          </mxGeometry>
        </mxCell>
        <mxCell id="8IGTsKS9_2m41PuYOUdk-23" value="&lt;div style=&quot;color: rgb(204, 204, 204); background-color: rgb(31, 31, 31); font-family: Consolas, &amp;quot;Courier New&amp;quot;, monospace; line-height: 19px;&quot;&gt;Console&lt;span style=&quot;color: #d4d4d4;&quot;&gt;.&lt;/span&gt;&lt;span style=&quot;color: #dcdcaa;&quot;&gt;Write&lt;/span&gt;(&lt;span style=&quot;color: #ce9178;&quot;&gt;&quot;&#39;&quot;&lt;/span&gt;&lt;span style=&quot;color: #d4d4d4;&quot;&gt;+&lt;/span&gt; &lt;span style=&quot;color: #9cdcfe;&quot;&gt;all_mas&lt;/span&gt;[&lt;span style=&quot;color: #9cdcfe;&quot;&gt;i&lt;/span&gt;]&lt;span style=&quot;color: #d4d4d4;&quot;&gt;+&lt;/span&gt;&lt;span style=&quot;color: #ce9178;&quot;&gt;&quot;&#39;&quot;&lt;/span&gt;&lt;span style=&quot;color: #d4d4d4;&quot;&gt;+&lt;/span&gt;&lt;span style=&quot;color: #ce9178;&quot;&gt;&quot;, &quot;&lt;/span&gt;); &lt;/div&gt;" style="whiteSpace=wrap;html=1;rounded=1;" vertex="1" parent="1">
          <mxGeometry x="500" y="90" width="180" height="140" as="geometry" />
        </mxCell>
        <mxCell id="8IGTsKS9_2m41PuYOUdk-31" value="" style="edgeStyle=orthogonalEdgeStyle;rounded=0;orthogonalLoop=1;jettySize=auto;html=1;" edge="1" parent="1" source="8IGTsKS9_2m41PuYOUdk-27" target="8IGTsKS9_2m41PuYOUdk-30">
          <mxGeometry relative="1" as="geometry" />
        </mxCell>
        <mxCell id="8IGTsKS9_2m41PuYOUdk-27" value="&lt;div style=&quot;color: rgb(204, 204, 204); background-color: rgb(31, 31, 31); font-family: Consolas, &amp;quot;Courier New&amp;quot;, monospace; line-height: 19px;&quot;&gt;for (&lt;span style=&quot;color: #569cd6;&quot;&gt;int&lt;/span&gt; &lt;span style=&quot;color: #9cdcfe;&quot;&gt;gg&lt;/span&gt; &lt;span style=&quot;color: #d4d4d4;&quot;&gt;=&lt;/span&gt; &lt;span style=&quot;color: #b5cea8;&quot;&gt;0&lt;/span&gt;; &lt;span style=&quot;color: #9cdcfe;&quot;&gt;gg&lt;/span&gt; &lt;span style=&quot;color: #d4d4d4;&quot;&gt;&amp;lt;&lt;/span&gt; &lt;span style=&quot;color: #9cdcfe;&quot;&gt;new_mas&lt;/span&gt;&lt;span style=&quot;color: #d4d4d4;&quot;&gt;.&lt;/span&gt;&lt;span style=&quot;color: #9cdcfe;&quot;&gt;Length&lt;/span&gt;; &lt;span style=&quot;color: #9cdcfe;&quot;&gt;gg&lt;/span&gt;&lt;span style=&quot;color: #d4d4d4;&quot;&gt;++&lt;/span&gt;)&lt;/div&gt;" style="shape=hexagon;perimeter=hexagonPerimeter2;whiteSpace=wrap;html=1;fixedSize=1;rounded=1;" vertex="1" parent="1">
          <mxGeometry x="810" y="270" width="280" height="140" as="geometry" />
        </mxCell>
        <mxCell id="8IGTsKS9_2m41PuYOUdk-30" value="&lt;div style=&quot;color: rgb(204, 204, 204); background-color: rgb(31, 31, 31); font-family: Consolas, &amp;quot;Courier New&amp;quot;, monospace; font-size: 14px; line-height: 19px;&quot;&gt;Console&lt;span style=&quot;color: #d4d4d4;&quot;&gt;.&lt;/span&gt;&lt;span style=&quot;color: #dcdcaa;&quot;&gt;Write&lt;/span&gt;(&lt;span style=&quot;color: #9cdcfe;&quot;&gt;new_mas&lt;/span&gt;[&lt;span style=&quot;color: #9cdcfe;&quot;&gt;gg&lt;/span&gt;]&lt;span style=&quot;color: #d4d4d4;&quot;&gt;+&lt;/span&gt;&lt;span style=&quot;color: #ce9178;&quot;&gt;&quot; &quot;&lt;/span&gt;); &lt;/div&gt;" style="whiteSpace=wrap;html=1;rounded=1;" vertex="1" parent="1">
          <mxGeometry x="830" y="450" width="240" height="140" as="geometry" />
        </mxCell>
      </root>
    </mxGraphModel>
  </diagram>
</mxfile>
